Coordinates
version=1
nRows=38
nColumns=12
inDegrees=yes

Units are S.I. units (second, meters, Newtons, ...)
Angles are in degrees

endheader
time	SC_y	SC_z	SC_x	AC_y	AC_z	AC_x	GH_y	GH_z	GH_yy	EL_x	PS_y
       0.0              -26.29          21.59          25.08          63.23         -1.096          5.913          113.9           9.43         -170.5          89.28          40.76
   0.00882              -26.29          21.59          25.09          63.23         -1.097           5.91          113.9          9.435         -170.5          89.28          40.76
   0.01764              -26.29          21.59           25.1          63.23         -1.098          5.906          113.8           9.44         -170.5          89.28          40.76
   0.02646              -26.28          21.59          25.11          63.23         -1.099          5.901          113.8          9.445         -170.5          89.27          40.76
   0.03528              -26.28           21.6          25.12          63.22         -1.099          5.897          113.8           9.45         -170.5          89.27          40.76
    0.0441              -26.28           21.6          25.13          63.22           -1.1          5.892          113.8          9.456         -170.5          89.27          40.76
   0.05292              -26.28           21.6          25.14          63.22         -1.101          5.887          113.7          9.462         -170.5          89.27          40.76
   0.06174              -26.28           21.6          25.15          63.22         -1.103          5.881          113.7          9.469         -170.5          89.26          40.75
   0.07056              -26.28          21.61          25.17          63.22         -1.104          5.875          113.7          9.476         -170.5          89.26          40.75
   0.07938              -26.28          21.61          25.18          63.22         -1.105          5.869          113.6          9.484         -170.4          89.26          40.75
    0.0882              -26.28          21.61           25.2          63.21         -1.106          5.862          113.6          9.492         -170.4          89.25          40.75
   0.09702              -26.27          21.62          25.21          63.21         -1.108          5.855          113.5          9.501         -170.4          89.25          40.75
    0.1058              -26.27          21.62          25.23          63.21         -1.109          5.847          113.5           9.51         -170.4          89.25          40.74
    0.1147              -26.27          21.62          25.25          63.21         -1.111          5.838          113.5          9.521         -170.4          89.24          40.74
    0.1235              -26.27          21.63          25.27           63.2         -1.113          5.829          113.4          9.532         -170.4          89.24          40.74
    0.1323              -26.27          21.63          25.29           63.2         -1.115          5.819          113.4          9.544         -170.4          89.23          40.74
    0.1411              -26.26          21.64          25.31           63.2         -1.117          5.808          113.3          9.557         -170.4          89.23          40.73
    0.1499              -26.26          21.64          25.34          63.19          -1.12          5.796          113.2          9.571         -170.4          89.22          40.73
    0.1588              -26.26          21.65          25.37          63.19         -1.122          5.783          113.2          9.587         -170.4          89.21          40.73
    0.1676              -26.26          21.65           25.4          63.18         -1.125          5.769          113.1          9.604         -170.3          89.21          40.72
    0.1764              -26.25          21.66          25.43          63.18         -1.128          5.754          113.0          9.623         -170.3           89.2          40.72
    0.1852              -26.25          21.67          25.47          63.17         -1.132          5.737          112.9          9.643         -170.3          89.19          40.71
     0.194              -26.25          21.68          25.51          63.17         -1.135          5.718          112.8          9.666         -170.3          89.18          40.71
    0.2029              -26.24          21.69          25.56          63.16          -1.14          5.697          112.7          9.691         -170.3          89.17           40.7
    0.2117              -26.24           21.7          25.61          63.15         -1.144          5.673          112.5          9.719         -170.2          89.16          40.69
    0.2205              -26.23          21.71          25.67          63.15          -1.15          5.647          112.4          9.751         -170.2          89.14          40.68
    0.2293              -26.22          21.72          25.73          63.14         -1.155          5.618          112.2          9.786         -170.2          89.13          40.68
    0.2381              -26.22          21.74           25.8          63.13         -1.162          5.585          112.1          9.825         -170.2          89.11          40.67
     0.247              -26.21          21.75          25.88          63.12         -1.169          5.548          111.9           9.87         -170.1          89.09          40.65
    0.2558               -26.2          21.77          25.98           63.1         -1.178          5.506          111.6          9.921         -170.1          89.07          40.64
    0.2646              -26.19          21.79          26.08          63.09         -1.188          5.458          111.4          9.978         -170.0          89.05          40.63
    0.2734              -26.18          21.82           26.2          63.07         -1.199          5.403          111.1          10.04         -170.0          89.02          40.61
    0.2822              -26.17          21.85          26.34          63.05         -1.211           5.34          110.7          10.12         -169.9          88.99          40.59
    0.2911              -26.15          21.88           26.5          63.03         -1.226          5.266          110.3          10.21         -169.8          88.95          40.57
    0.2999              -26.13          21.92          26.69           63.0         -1.244          5.179          109.8          10.31         -169.8           88.9          40.54
    0.3087              -26.11          21.97          26.92          62.97         -1.264          5.077          109.3          10.44         -169.6          88.85          40.51
    0.3175              -26.08          22.02          27.18          62.93         -1.288          4.956          108.6          10.58         -169.5          88.79          40.48
    0.3263              -26.05          22.09           27.5          62.89         -1.318          4.811          107.8          10.76         -169.4          88.72          40.43
